<?xml version="1.0" encoding="utf-8"?>
<!-- Generator: Adobe Illustrator 27.3.1, SVG Export Plug-In . SVG Version: 6.00 Build 0)  -->
<svg version="1.1" id="Layer_1" xmlns="http://www.w3.org/2000/svg" xmlns:xlink="http://www.w3.org/1999/xlink" x="0px" y="0px"
	 viewBox="0 0 1080 1080" style="enable-background:new 0 0 1080 1080;" xml:space="preserve">
<style type="text/css">
	.st0{fill:none;}
	.st1{opacity:0.31;fill:#FFFFFF;stroke:#FFFFFF;stroke-width:2;stroke-miterlimit:10;}
	.st2{opacity:0.31;fill:#3DA5D9;stroke:#FFFFFF;stroke-width:2;stroke-miterlimit:10;}
	.st3{opacity:6.000000e-02;fill:url(#SVGID_1_);}
	.st4{fill:#FFFFFF;}
	.st5{fill:#EC008C;}
</style>
<pattern  width="118" height="180" patternUnits="userSpaceOnUse" id="New_Pattern" viewBox="84.1 -228 118 180" style="overflow:visible;">
	<g>
		<rect x="84.1" y="-228" class="st0" width="118" height="180"/>
		<g>
			<path class="st1" d="M179.8-24h-42.2c1.9,6.8,8.1,11.8,15.4,11.8c5.4,0,10.1-2.7,13-6.7l9.1,6.4C170.2-5.5,162.1-1,153-1
				c-13.5,0-24.7-10-26.8-23c-0.2-1.4-0.3-2.8-0.3-4.3c0-1.7,0.2-3.4,0.5-5.1c2.4-12.6,13.4-22.2,26.6-22.2
				c13.3,0,24.3,9.6,26.6,22.2c0.3,1.6,0.5,3.3,0.5,5.1C180.1-26.8,180-25.4,179.8-24z M168.2-33.3c-2.1-6.4-8.1-11-15.2-11
				c-5.4,0-10.2,2.7-13.1,6.9c-0.9,1.3-1.6,2.6-2.1,4.1H168.2z"/>
			<path class="st2" d="M197.8-53.8H180L199-29.2L179.1-4.4h18.4l10.4-13.7L219.8-4h17.4l-19.5-24.7c0,0,29.9-45.3,55.4-64
				c0.1-0.1,0.2-0.1,0.3-0.2c0,0-31.8,10.7-64.8,52.1L197.8-53.8z"/>
		</g>
		<g>
			<path class="st2" d="M79.8-53.8H62L81-29.2L61.1-4.4h18.4l10.4-13.7L101.8-4h17.4L99.8-28.7c0,0,29.9-45.3,55.4-64
				c0.1-0.1,0.2-0.1,0.3-0.2c0,0-31.8,10.7-64.8,52.1L79.8-53.8z"/>
		</g>
		<g>
			<path class="st1" d="M238.8-114h-42.2c1.9,6.8,8.1,11.8,15.4,11.8c5.4,0,10.1-2.7,13-6.7l9.1,6.4c-4.9,6.9-13,11.5-22.1,11.5
				c-13.5,0-24.7-10-26.8-23c-0.2-1.4-0.3-2.8-0.3-4.3c0-1.7,0.2-3.4,0.5-5.1c2.4-12.6,13.4-22.2,26.6-22.2
				c13.3,0,24.3,9.6,26.6,22.2c0.3,1.6,0.5,3.3,0.5,5.1C239.1-116.8,239-115.4,238.8-114z M227.2-123.3c-2.1-6.4-8.1-11-15.2-11
				c-5.4,0-10.2,2.7-13.1,6.9c-0.9,1.3-1.6,2.6-2.1,4.1H227.2z"/>
		</g>
		<g>
			<path class="st1" d="M120.8-114H78.6c1.9,6.8,8.1,11.8,15.4,11.8c5.4,0,10.1-2.7,13-6.7l9.1,6.4C111.2-95.5,103.1-91,94-91
				c-13.5,0-24.7-10-26.8-23c-0.2-1.4-0.3-2.8-0.3-4.3c0-1.7,0.2-3.4,0.5-5.1c2.4-12.6,13.4-22.2,26.6-22.2
				c13.3,0,24.3,9.6,26.6,22.2c0.3,1.6,0.5,3.3,0.5,5.1C121.1-116.8,121-115.4,120.8-114z M109.2-123.3c-2.1-6.4-8.1-11-15.2-11
				c-5.4,0-10.2,2.7-13.1,6.9c-0.9,1.3-1.6,2.6-2.1,4.1H109.2z"/>
			<path class="st2" d="M138.8-143.8H121l18.9,24.6l-19.9,24.7h18.4l10.4-13.7L160.8-94h17.4l-19.5-24.7c0,0,29.9-45.3,55.4-64
				c0.1-0.1,0.2-0.1,0.3-0.2c0,0-31.8,10.7-64.8,52.1L138.8-143.8z"/>
		</g>
		<g>
			<path class="st2" d="M20.8-143.8H3L22-119.2L2.1-94.4h18.4l10.4-13.7L42.8-94h17.4l-19.5-24.7c0,0,29.9-45.3,55.4-64
				c0.1-0.1,0.2-0.1,0.3-0.2c0,0-31.8,10.7-64.8,52.1L20.8-143.8z"/>
		</g>
		<g>
			<path class="st1" d="M179.8-204h-42.2c1.9,6.8,8.1,11.8,15.4,11.8c5.4,0,10.1-2.7,13-6.7l9.1,6.4c-4.9,6.9-13,11.5-22.1,11.5
				c-13.5,0-24.7-10-26.8-23c-0.2-1.4-0.3-2.8-0.3-4.3c0-1.7,0.2-3.4,0.5-5.1c2.4-12.6,13.4-22.2,26.6-22.2
				c13.3,0,24.3,9.6,26.6,22.2c0.3,1.6,0.5,3.3,0.5,5.1C180.1-206.8,180-205.4,179.8-204z M168.2-213.3c-2.1-6.4-8.1-11-15.2-11
				c-5.4,0-10.2,2.7-13.1,6.9c-0.9,1.3-1.6,2.6-2.1,4.1H168.2z"/>
			<path class="st2" d="M197.8-233.8H180l18.9,24.6l-19.9,24.7h18.4l10.4-13.7l11.9,14.2h17.4l-19.5-24.7c0,0,29.9-45.3,55.4-64
				c0.1-0.1,0.2-0.1,0.3-0.2c0,0-31.8,10.7-64.8,52.1L197.8-233.8z"/>
		</g>
		<g>
			<path class="st2" d="M79.8-233.8H62L81-209.2l-19.9,24.7h18.4l10.4-13.7l11.9,14.2h17.4l-19.5-24.7c0,0,29.9-45.3,55.4-64
				c0.1-0.1,0.2-0.1,0.3-0.2c0,0-31.8,10.7-64.8,52.1L79.8-233.8z"/>
		</g>
	</g>
</pattern>
<path d="M1075,1087H11.4c-6.6,0-12-5.4-12-12V8.3c0-6.6,5.4-12,12-12H1075c6.6,0,12,5.4,12,12V1075
	C1087,1081.6,1081.6,1087,1075,1087z"/>
<pattern  id="SVGID_1_" xlink:href="#New_Pattern" patternTransform="matrix(1 0 0 1 945.5646 6.6443)">
</pattern>
<path class="st3" d="M1074.6,1097.8H7.8c-6.6,0-12-5.4-12-12V10.9c0-6.6,5.4-12,12-12h1066.7c6.6,0,12,5.4,12,12v1074.9
	C1086.6,1092.4,1081.2,1097.8,1074.6,1097.8z"/>
<g>
	<path class="st4" d="M351.1,539c0-4.3-0.4-8.4-1.2-12.5c-5.8-31.1-33-54.7-65.7-54.7c-32.7,0-59.8,23.6-65.6,54.7
		c-0.8,4.1-1.2,8.2-1.2,12.5c0,3.6,0.3,7.1,0.8,10.5c5,32.1,32.7,56.7,66,56.7c22.5,0,42.3-11.1,54.4-28.2l-22.3-15.9
		c-7.1,10.1-18.9,16.6-32.1,16.6c-18.2,0-33.5-12.4-38.1-29.2h104.1C350.9,546.1,351.1,542.6,351.1,539z M246.9,526.5
		c1.2-3.7,2.9-7.1,5.1-10.2c7.1-10.3,19-17,32.4-17c17.5,0,32.3,11.4,37.5,27.2H246.9z"/>
	<path class="st5" d="M386.7,476.1H343l46.6,60.7l-49,61h45.3l25.5-33.9l29.4,34.9h43l-47.9-61c0,0,73.7-111.7,136.6-157.6
		c0.2-0.2,0.4-0.3,0.7-0.5c0,0-78.4,26.3-159.7,128.4L386.7,476.1z"/>
	<g>
		<path class="st4" d="M513.1,543.9c-5.6,0-10.6-1.1-15.2-3.4c-4.5-2.2-8.1-5.7-10.8-10.4c-2.7-4.7-4-10.6-4-17.9
			c0-6.8,1.4-12.6,4.1-17.6c2.7-4.9,6.4-8.8,10.9-11.5c4.5-2.7,9.2-4.1,14.3-4.1c6,0,10.5,1,13.5,3c3.1,2,5.6,4.1,7.6,6.5l-0.8,2.3
			l1.8-8.8h17.9v60h-19.2v-13l1.5,4.1c-0.2,0-0.7,0.5-1.6,1.6c-0.9,1.1-2.3,2.3-4.1,3.7c-1.8,1.4-4,2.7-6.6,3.7
			C519.8,543.4,516.7,543.9,513.1,543.9z M518.6,528.3c3.5,0,6.4-0.8,8.8-2.3c2.4-1.5,4.3-3.8,5.8-6.8v-14.7c-1.1-2.9-3-5.3-5.7-7
			c-2.7-1.7-5.9-2.6-9.5-2.6c-2.7,0-5.3,0.7-7.6,2.1c-2.3,1.4-4.2,3.4-5.6,5.8c-1.4,2.5-2.1,5.3-2.1,8.5c0,3.2,0.7,6.1,2.2,8.7
			c1.5,2.6,3.4,4.6,5.8,6C513.1,527.5,515.8,528.3,518.6,528.3z"/>
		<path class="st4" d="M589.6,482.2l1.5,10.6l-0.3-0.8c2.4-4,5.4-7.2,8.9-9.4c3.6-2.2,7.9-3.4,12.9-3.4c4.9,0,8.9,1,12.2,3
			c3.3,2,5.4,5.1,6.5,9.3l-0.7,0.1c2.6-3.8,5.7-6.8,9.3-9.1c3.6-2.3,7.4-3.4,11.3-3.4c6,0,10.7,1.7,14.2,5c3.5,3.3,5.3,7.7,5.4,13
			v45.1h-19.1v-37.1c-0.1-2.7-0.5-4.8-1.2-6.5c-0.7-1.7-2.4-2.6-5.1-2.8c-3.1,0-5.7,1.1-7.9,3.2c-2.2,2.2-3.8,4.9-4.8,8.2
			c-1.1,3.3-1.6,6.8-1.6,10.4v24.6H612v-37.1c-0.1-2.7-0.6-4.8-1.4-6.5c-0.9-1.7-2.6-2.6-5.3-2.8c-3,0-5.6,1.1-7.6,3.2
			c-2.1,2.2-3.6,4.9-4.7,8.2c-1.1,3.3-1.6,6.7-1.6,10.2v24.9h-19.2v-60H589.6z"/>
		<path class="st4" d="M696.4,455.9h19.2V482h14.6v15h-14.6v45.3h-19.2v-45.3H687v-15h9.3V455.9z"/>
		<path class="st4" d="M740.2,511.5c0-6.1,1.4-11.6,4.3-16.5c2.9-4.9,6.9-8.7,12.2-11.5c5.2-2.8,11.2-4.2,18-4.2
			c6.9,0,12.8,1.4,17.9,4.2c5,2.8,8.9,6.6,11.6,11.5c2.7,4.9,4.1,10.3,4.1,16.5c0,6.1-1.4,11.7-4.1,16.6c-2.7,4.9-6.6,8.8-11.6,11.6
			c-5,2.8-11.1,4.3-18.1,4.3c-6.6,0-12.5-1.3-17.6-3.8c-5.2-2.6-9.2-6.3-12.2-11.1C741.6,524.1,740.2,518.3,740.2,511.5z
			 M759.5,511.6c0,3.1,0.6,5.9,1.9,8.4c1.3,2.5,3,4.5,5.2,6c2.2,1.5,4.7,2.2,7.4,2.2c4.5,0,8.1-1.6,10.7-4.7c2.7-3.2,4-7.1,4-11.9
			c0-4.8-1.3-8.7-4-11.9c-2.7-3.2-6.2-4.7-10.7-4.7c-2.7,0-5.2,0.7-7.4,2.2c-2.2,1.5-3.9,3.4-5.2,5.9
			C760.2,505.6,759.5,508.4,759.5,511.6z"/>
		<path class="st4" d="M840.6,482.2l1.8,16.5l-0.4-2.5c1.7-3.6,4.1-6.6,7.1-9.1c3-2.5,6-4.5,9-5.8c3-1.4,5.2-2.1,6.8-2.1l-1,19.2
			c-4.5-0.5-8.3,0.2-11.5,2.2c-3.2,2-5.7,4.7-7.4,8c-1.7,3.3-2.6,6.7-2.6,10.2v23.5h-19.1v-60H840.6z"/>
	</g>
	<g>
		<g>
		</g>
	</g>
	<g>
		<g>
			<path class="st4" d="M534.7,577.4c0,2.2,1.1,4.4,3.6,4.4c2.1,0,2.7-0.8,3.1-1.9h5c-0.6,2.2-2.6,5.8-8.2,5.8
				c-5.9,0-8.5-4.4-8.5-9.1c0-5.6,2.9-9.7,8.7-9.7c6.2,0,8.3,4.5,8.3,9c0,0.6,0,1-0.1,1.5H534.7z M541.7,574.4
				c0-2.1-0.9-3.9-3.3-3.9c-2.4,0-3.3,1.6-3.5,3.9H541.7z"/>
			<path class="st4" d="M557.9,567.4c1.9,3.4,2.6,4.7,3.2,5.6h0c0.6-1.1,1.7-3.1,3.2-5.6h5.5l-5.8,8.6l5.8,9.4h-5.6
				c-1.6-3-2.6-5-3.2-6h0c-0.5,0.9-1.7,3.3-3.2,6h-5.4l5.6-8.8l-5.5-9.2H557.9z"/>
			<path class="st4" d="M591.6,580.7c0,1.7,0.1,4.2,0.2,4.6h-4.8c-0.1-0.4-0.2-1.3-0.3-1.8c-0.7,1-1.9,2.2-5.1,2.2
				c-4.3,0-6.2-2.8-6.2-5.6c0-4.1,3.3-6,8.6-6c0.9,0,2,0,2.6,0V573c0-1.3-0.5-2.5-2.8-2.5c-2.1,0-2.6,0.9-2.8,2.2h-4.7
				c0.3-3.2,2.2-5.8,7.7-5.7c4.8,0,7.4,1.9,7.4,6.2V580.7z M586.7,577.2c-0.4,0-1.4,0-2,0c-3,0-4.1,0.9-4.1,2.6
				c0,1.3,0.8,2.4,2.6,2.4c3.2,0,3.5-2.2,3.5-4.6V577.2z"/>
			<path class="st4" d="M600.8,572c0-1.6,0-3.1,0-4.6h4.8c0.1,0.4,0.2,1.4,0.2,2.1c0.9-1.3,2.4-2.6,5-2.6c2.6,0,4,1.3,4.6,2.7
				c1.1-1.5,2.6-2.7,5.5-2.7c3.1,0,5.7,1.9,5.7,6.6v11.8h-4.9v-11.2c0-1.6-0.6-3.2-2.6-3.2c-2.1,0-2.9,1.4-2.9,4.1v10.3h-4.9v-11
				c0-1.9-0.5-3.4-2.6-3.4c-2,0-3,1.2-3,4.3v10h-4.9V572z"/>
			<path class="st4" d="M653.8,583.7v8.5h-4.9v-20.5c0-1.5,0-2.9,0-4.3h4.8c0.1,0.5,0.2,1.6,0.2,2.2c0.8-1.3,2.4-2.7,5.2-2.7
				c4,0,7.2,3.4,7.2,8.9c0,6.3-3.5,9.9-7.8,9.9C655.8,585.7,654.5,584.8,653.8,583.7z M661.2,576.1c0-3.3-1.3-5.2-3.7-5.2
				c-2.8,0-3.8,1.8-3.8,5.4c0,3.4,0.9,5.4,3.6,5.4C659.9,581.8,661.2,579.7,661.2,576.1z"/>
			<path class="st4" d="M674.4,585.3V560h5v25.3H674.4z"/>
			<path class="st4" d="M703.4,580.7c0,1.7,0.1,4.2,0.2,4.6h-4.8c-0.1-0.4-0.2-1.3-0.3-1.8c-0.7,1-1.9,2.2-5.1,2.2
				c-4.3,0-6.2-2.8-6.2-5.6c0-4.1,3.3-6,8.6-6c0.9,0,2,0,2.6,0V573c0-1.3-0.5-2.5-2.8-2.5c-2.1,0-2.6,0.9-2.8,2.2h-4.7
				c0.3-3.2,2.2-5.8,7.7-5.7c4.8,0,7.4,1.9,7.4,6.2V580.7z M698.6,577.2c-0.4,0-1.4,0-2,0c-3,0-4.1,0.9-4.1,2.6
				c0,1.3,0.8,2.4,2.6,2.4c3.2,0,3.5-2.2,3.5-4.6V577.2z"/>
			<path class="st4" d="M710.9,567.4h2.8v-4.9h5v4.9h3.5v3.7h-3.5v8.9c0,1.4,0.4,1.9,1.9,1.9c0.3,0,0.8,0,1.1-0.1v3.4
				c-1,0.3-2.3,0.3-3.3,0.3c-3.5,0-4.7-1.9-4.7-5v-9.5h-2.8V567.4z"/>
			<path class="st4" d="M730.7,585.3v-14.2H728v-3.7h2.6v-1.6c0-3.7,1.8-6.1,5.7-6.1c0.8,0,1.9,0.1,2.3,0.2v3.9
				c-0.3,0-0.7-0.1-1-0.1c-1.5,0-2,0.5-2,2.5v1.2h3.1v3.7h-3.1v14.2H730.7z"/>
			<path class="st4" d="M762.9,576.3c0,5.4-3.3,9.4-8.9,9.4c-5.6,0-8.8-4-8.8-9.3c0-5.5,3.4-9.5,9.1-9.5
				C759.4,566.9,762.9,570.7,762.9,576.3z M750.1,576.3c0,3.5,1.5,5.5,3.9,5.5c2.4,0,3.8-2.1,3.8-5.5c0-3.8-1.4-5.5-3.9-5.5
				C751.6,570.8,750.1,572.5,750.1,576.3z"/>
			<path class="st4" d="M771,572.2c0-1.8,0-3.4,0-4.9h4.9c0.1,0.4,0.1,2.2,0.1,3.2c0.8-2.1,2.7-3.6,5.8-3.6v4.7
				c-3.6-0.1-5.8,0.9-5.8,5.8v7.8h-5V572.2z"/>
			<path class="st4" d="M789.4,572c0-1.6,0-3.1,0-4.6h4.8c0.1,0.4,0.2,1.4,0.2,2.1c0.9-1.3,2.4-2.6,5-2.6c2.6,0,4,1.3,4.6,2.7
				c1.1-1.5,2.6-2.7,5.5-2.7c3.1,0,5.7,1.9,5.7,6.6v11.8h-4.9v-11.2c0-1.6-0.6-3.2-2.6-3.2c-2.1,0-2.9,1.4-2.9,4.1v10.3h-4.9v-11
				c0-1.9-0.5-3.4-2.6-3.4c-2,0-3,1.2-3,4.3v10h-4.9V572z"/>
		</g>
	</g>
	<rect x="485.5" y="575.9" class="st5" width="34.7" height="5.3"/>
	<rect x="826.8" y="575.9" class="st5" width="34.7" height="5.3"/>
	<g>
		<path class="st5" d="M811.5,491c-0.4,0.5-0.3,1-0.1,1.3c0.4,0.6,0.4,1.1,0.3,1.7c-0.2,1.2-0.5,2.4-0.9,3.5
			c-0.1,0.2-0.3,0.4-0.4,0.6c-0.3,0.5-0.1,0.8,0.4,1c0.4,0.1,0.9,0.2,1.3,0.3c0.6,0.1,0.8-0.1,0.9-0.7c0-1.8,0-3.7,0.1-5.5
			c0-0.5,0.3-1.1,0.1-1.5c-0.3-0.9-0.2-1.6,0-2.5c0.4-1.8,0.7-3.6,1-5.5c0-0.1,0.3-0.3,0.5-0.3c1.2,0.1,2.4,0.3,3.6,0.5
			c0.7,0.1,1.2,0.5,1.5,1.2c0.8,2,1.5,3.9,2.3,5.9c0,0.1,0.1,0.2,0.2,0.4c1.8-2.2,4.2-3.4,6.5-4.7c2.4-1.3,4.9-2.3,7.6-2.4
			c1.8-0.1,3.6-0.2,5.3,0.4c0,0,0.1,0,0.3,0c-0.1-0.5-0.3-1-0.4-1.5c-0.4-1.5-0.8-3-1.2-4.6c-0.1-0.5,0-0.8,0.4-1.1
			c3-2.1,6-4.2,9-6.3c0.3-0.2,0.7-0.4,1.1-0.7c-0.3-0.1-0.4-0.1-0.6-0.2c-5.5-0.8-11.1-1.6-16.6-2.5c-2.2-0.3-4.4-0.7-6.6-1
			c-0.5-0.1-1,0-1.4,0.4c-5.2,4-10.4,7.9-15.6,11.9c-1.3,1-2.7,2.1-4,3.1c-0.2,0.1-0.4,0.3-0.5,0.6c2.5,0.2,5,0.4,7.6,0.6
			c0,0.2,0,0.5,0,0.7c-0.3,1.7-0.5,3.3-0.8,5C812.4,489.8,811.9,490.4,811.5,491z"/>
	</g>
</g>
</svg>
